<?xml version="1.0" standalone="no"?>
<!DOCTYPE svg PUBLIC "-//W3C//DTD SVG 20010904//EN"
 "http://www.w3.org/TR/2001/REC-SVG-20010904/DTD/svg10.dtd">
<svg version="1.0" xmlns="http://www.w3.org/2000/svg"
 width="500.000000pt" height="500.000000pt" viewBox="0 0 500.000000 500.000000"
 preserveAspectRatio="xMidYMid meet">

<g transform="translate(0.000000,500.000000) scale(0.100000,-0.100000)"
fill="#000000" stroke="none">
<path d="M1361 3317 c-17 -4 -40 -21 -52 -38 -34 -48 -28 -106 21 -224 23 -55
53 -125 66 -155 28 -67 44 -160 44 -261 l0 -76 -57 -6 c-63 -7 -96 -26 -130
-77 -22 -32 -23 -41 -23 -266 l0 -232 25 -30 c41 -49 64 -54 273 -50 175 3
193 5 219 24 50 37 53 53 53 284 0 204 -1 218 -22 260 -27 52 -89 90 -150 90
l-38 0 0 103 c0 121 15 186 72 312 78 173 91 231 64 283 -29 56 -40 60 -194
64 -78 1 -155 0 -171 -5z m79 -927 c0 -97 2 -112 20 -130 33 -33 75 -30 108 6
20 23 22 35 22 131 l0 106 46 -6 c32 -3 55 -13 73 -31 l26 -26 3 -219 3 -219
-27 -21 c-25 -20 -39 -21 -202 -21 -239 0 -222 -20 -222 251 0 134 4 217 11
233 14 30 62 55 107 56 l32 0 0 -110z"/>
<path d="M2539 3182 c-28 -24 -31 -79 -4 -99 11 -7 43 -21 73 -30 62 -20 78
-40 56 -71 -10 -15 -26 -22 -49 -22 -48 0 -68 9 -55 25 14 17 2 45 -20 45 -20
0 -34 -29 -25 -52 16 -41 134 -52 179 -17 31 24 35 68 8 93 -11 9 -46 25 -80
37 -67 22 -78 36 -56 68 15 21 55 28 88 15 13 -5 14 -9 5 -21 -19 -22 14 -52
35 -33 23 18 20 46 -6 64 -32 23 -120 21 -149 -2z"/>
<path d="M2740 3185 c0 -8 9 -15 20 -15 19 0 20 -7 20 -99 0 -90 -2 -99 -20
-104 -11 -3 -20 -10 -20 -16 0 -7 38 -11 115 -11 l115 0 0 50 c0 37 -4 50 -14
50 -10 0 -16 -13 -18 -37 l-3 -38 -57 0 -58 0 0 48 c0 46 1 47 30 47 23 0 30
-4 30 -20 0 -11 7 -20 15 -20 11 0 15 12 15 50 0 38 -4 50 -15 50 -8 0 -15 -9
-15 -20 0 -16 -7 -20 -30 -20 -29 0 -30 2 -30 45 l0 45 60 0 60 0 0 -35 c0
-24 5 -35 15 -35 11 0 15 12 15 50 l0 50 -115 0 c-96 0 -115 -3 -115 -15z"/>
<path d="M2990 3189 c0 -6 9 -13 20 -16 18 -5 20 -14 20 -108 0 -89 -2 -103
-16 -101 -9 0 -19 -5 -21 -11 -3 -10 12 -13 56 -13 60 0 80 13 41 25 -16 5
-20 15 -20 51 0 37 3 44 19 44 37 0 51 -12 62 -54 14 -54 25 -66 60 -66 22 0
32 6 39 26 14 36 12 54 -5 54 -9 0 -15 -9 -15 -25 0 -15 -6 -25 -14 -25 -15 0
-26 21 -26 50 0 9 -7 23 -15 30 -13 11 -11 15 10 32 16 12 25 29 25 46 0 35
-10 49 -43 61 -38 15 -177 14 -177 0z m174 -35 c19 -19 20 -25 4 -47 -8 -10
-29 -18 -53 -20 l-40 -2 -3 43 -3 42 40 0 c23 0 46 -7 55 -16z"/>
<path d="M3260 3189 c0 -6 9 -13 20 -16 11 -3 20 -8 20 -12 1 -3 2 -46 4 -94
3 -85 2 -89 -20 -99 -41 -19 -27 -28 41 -28 37 0 65 4 65 10 0 6 -9 10 -20 10
-17 0 -20 7 -20 50 l0 50 50 0 50 0 0 -44 c0 -36 -4 -46 -20 -51 -48 -15 -12
-25 95 -25 77 0 115 4 115 11 0 6 -9 13 -19 16 -17 4 -18 9 -9 34 9 27 14 29
59 29 44 0 51 -3 59 -26 14 -35 13 -44 -5 -44 -8 0 -15 -4 -15 -10 0 -5 25
-10 55 -10 53 0 74 13 38 22 -12 4 -32 44 -62 122 -37 99 -47 116 -65 116 -18
0 -28 -17 -65 -115 -24 -63 -48 -115 -52 -116 -5 -1 -18 -1 -29 -1 -11 0 -24
0 -30 1 -6 1 -10 42 -10 100 0 95 1 100 22 103 12 2 23 9 26 16 3 9 -14 12
-62 12 -41 0 -66 -4 -66 -11 0 -6 9 -13 20 -16 16 -4 20 -14 20 -44 l0 -39
-50 0 -50 0 0 39 c0 31 4 40 21 44 12 3 18 10 14 16 -8 15 -125 14 -125 0z
m429 -76 c8 -21 16 -44 18 -50 4 -9 -7 -13 -37 -13 -30 0 -41 4 -37 13 2 6 10
29 18 50 7 20 16 37 19 37 3 0 12 -17 19 -37z"/>
<path d="M3782 3148 c2 -39 7 -53 18 -53 10 0 16 12 18 38 3 34 6 37 33 37
l29 0 0 -99 c0 -90 -2 -99 -20 -104 -43 -11 -19 -27 40 -27 59 0 83 16 40 27
-18 5 -20 14 -20 104 l0 99 35 0 c34 0 35 -1 35 -41 0 -61 24 -45 28 19 l3 52
-121 0 -121 0 3 -52z"/>
<path d="M983 3067 c-51 -51 -93 -100 -93 -109 0 -8 13 -35 30 -59 35 -52 35
-55 11 -112 -18 -42 -23 -46 -66 -52 -25 -4 -56 -15 -68 -25 -21 -17 -22 -26
-22 -145 0 -119 1 -128 22 -145 12 -10 42 -21 66 -24 39 -6 45 -11 65 -52 12
-24 22 -49 22 -54 0 -5 -13 -31 -30 -57 -16 -26 -30 -56 -30 -66 0 -28 171
-197 200 -197 12 0 35 8 51 17 29 17 29 18 29 115 l0 98 -43 53 c-153 188
-138 465 33 637 31 30 72 64 93 75 20 11 37 25 37 31 0 6 -10 35 -21 63 -18
42 -25 50 -41 45 -12 -3 -33 5 -60 25 -65 48 -79 44 -185 -62z"/>
<path d="M1861 3130 c-28 -21 -49 -29 -62 -25 -14 5 -21 0 -28 -17 -5 -13 -16
-40 -25 -60 l-16 -36 43 -25 c23 -14 65 -49 93 -79 96 -102 134 -197 134 -337
0 -127 -32 -216 -110 -306 l-40 -46 0 -94 c0 -92 1 -94 29 -114 51 -37 69 -29
170 74 102 103 103 107 55 172 -13 17 -24 39 -24 47 0 23 42 106 54 106 26 0
87 22 101 36 20 20 22 251 3 277 -7 9 -38 22 -67 29 -52 13 -56 16 -75 62
l-19 48 28 52 c20 37 26 60 22 78 -9 36 -170 188 -200 188 -13 0 -43 -14 -66
-30z"/>
<path d="M4153 2764 c-3 -8 -1 -20 6 -27 14 -14 47 15 37 32 -10 16 -36 13
-43 -5z"/>
<path d="M2560 2683 c-85 -76 -38 -233 70 -233 56 0 89 18 111 62 23 45 24 75
3 127 -20 51 -51 71 -108 71 -36 0 -52 -6 -76 -27z m120 -13 c26 -26 34 -60
27 -118 -9 -78 -70 -107 -118 -56 -20 21 -24 36 -24 84 0 48 4 63 24 84 29 31
64 33 91 6z"/>
<path d="M2780 2655 c0 -42 3 -55 15 -55 11 0 15 11 15 40 0 39 1 40 35 40
l35 0 0 -99 c0 -91 -2 -100 -20 -106 -39 -12 -19 -25 40 -25 33 0 60 4 60 10
0 6 -9 10 -20 10 -19 0 -20 7 -20 105 l0 105 29 0 c27 0 30 -3 33 -37 5 -62
28 -53 28 11 l0 56 -115 0 -115 0 0 -55z"/>
<path d="M3080 2683 c-85 -76 -38 -233 70 -233 21 0 51 5 65 12 32 14 65 75
65 118 0 43 -33 104 -65 118 -46 21 -101 15 -135 -15z m120 -13 c26 -26 34
-60 27 -118 -9 -78 -70 -107 -118 -56 -20 21 -24 36 -24 84 0 48 4 63 24 84
29 31 64 33 91 6z"/>
<path d="M3300 2696 c0 -9 9 -16 20 -16 19 0 20 -7 20 -99 0 -90 -2 -99 -20
-104 -41 -11 -20 -27 35 -27 55 0 73 13 35 25 -18 6 -20 15 -20 102 0 53 2 94
4 92 2 -2 21 -46 41 -96 20 -51 41 -93 45 -93 5 0 18 30 31 68 45 137 48 139
49 31 0 -88 -2 -97 -20 -102 -11 -3 -20 -10 -20 -16 0 -7 38 -11 115 -11 70 0
115 4 115 10 0 6 -7 10 -15 10 -21 0 -29 24 -15 49 8 16 20 21 55 21 40 0 46
-3 60 -31 16 -29 15 -31 -4 -36 -40 -10 -21 -23 34 -23 54 0 70 11 40 27 -8 5
-35 58 -59 118 -34 86 -48 111 -65 113 -15 3 -24 -4 -31 -25 -78 -210 -79
-211 -116 -211 l-34 0 0 103 c0 94 2 103 20 108 39 10 20 27 -29 27 l-49 0
-30 -82 -29 -81 -30 79 -30 79 -52 3 c-41 2 -51 0 -51 -12z m486 -110 c6 -24
4 -26 -30 -26 -41 0 -42 0 -19 66 l17 49 12 -31 c7 -17 16 -43 20 -58z"/>
<path d="M3870 2654 c0 -64 23 -73 28 -11 3 34 6 37 33 37 l29 0 0 -105 c0
-98 -1 -105 -20 -105 -11 0 -20 -4 -20 -10 0 -6 28 -10 65 -10 65 0 87 14 40
26 -25 6 -25 8 -25 105 l0 99 35 0 c34 0 35 -1 35 -40 0 -29 4 -40 15 -40 12
0 15 13 15 55 l0 55 -115 0 -115 0 0 -56z"/>
<path d="M4110 2699 c0 -6 9 -13 20 -16 18 -5 20 -14 20 -103 0 -89 -2 -98
-20 -103 -11 -3 -20 -10 -20 -16 0 -7 25 -11 66 -11 58 0 65 2 54 15 -7 8 -16
12 -21 9 -5 -3 -9 42 -9 100 0 88 3 106 15 106 8 0 15 7 15 15 0 12 -13 15
-60 15 -37 0 -60 -4 -60 -11z"/>
<path d="M4250 2695 c0 -8 9 -15 20 -15 19 0 20 -7 20 -99 0 -90 -2 -99 -20
-104 -41 -11 -20 -27 35 -27 30 0 55 5 55 10 0 6 -7 10 -15 10 -20 0 -21 73
-1 89 11 9 21 2 50 -33 40 -49 43 -56 21 -56 -8 0 -15 -4 -15 -10 0 -6 27 -10
60 -10 61 0 79 13 38 29 -13 5 -43 32 -67 61 l-44 52 43 43 c24 24 52 45 62
47 43 7 19 23 -39 26 -62 3 -80 -7 -46 -26 14 -8 10 -16 -30 -58 l-47 -49 0
53 c0 40 4 52 15 52 8 0 15 7 15 15 0 12 -13 15 -55 15 -42 0 -55 -3 -55 -15z"/>
<path d="M2534 2194 c-20 -19 -24 -31 -19 -52 8 -34 27 -48 93 -69 65 -21 81
-44 52 -73 -30 -30 -125 -25 -100 5 14 17 2 45 -20 45 -20 0 -34 -29 -25 -52
6 -16 46 -38 68 -38 15 0 17 -52 2 -62 -17 -13 3 -20 24 -8 14 7 21 21 21 40
0 23 5 30 19 30 30 0 71 39 71 67 0 38 -26 61 -87 79 -70 20 -89 39 -70 68 16
23 46 31 84 21 21 -5 23 -8 12 -21 -10 -12 -9 -18 4 -31 13 -13 19 -14 31 -3
44 36 -1 80 -82 80 -43 0 -57 -5 -78 -26z"/>
<path d="M2809 2105 c-29 -75 -50 -117 -61 -121 -36 -11 -16 -24 38 -24 40 0
54 3 51 13 -2 6 -12 11 -21 11 -19 -2 -20 5 -6 40 8 23 15 26 59 26 46 0 50
-2 60 -31 14 -41 14 -39 -9 -39 -11 0 -20 -4 -20 -10 0 -5 25 -10 55 -10 53 0
70 11 41 27 -8 4 -34 58 -58 118 -34 87 -47 111 -64 113 -18 3 -27 -12 -65
-113z m86 5 l14 -40 -41 0 c-30 0 -39 3 -35 14 3 8 11 33 18 56 14 45 19 42
44 -30z"/>
<path d="M3020 2209 c0 -6 9 -13 20 -16 18 -5 20 -14 20 -109 0 -97 -1 -104
-20 -104 -11 0 -20 -4 -20 -10 0 -5 25 -10 55 -10 53 0 70 11 41 27 -16 9 -34
183 -20 183 5 0 35 -48 67 -105 49 -88 63 -105 83 -105 24 0 24 0 24 114 0
105 1 114 20 119 43 11 19 27 -41 27 -44 0 -60 -3 -57 -12 3 -7 14 -14 26 -16
21 -3 22 -9 22 -93 0 -49 -2 -89 -4 -89 -2 0 -31 47 -63 105 l-58 105 -47 0
c-28 0 -48 -5 -48 -11z"/>
<path d="M3334 2206 c-3 -8 -4 -29 -2 -48 4 -48 32 -45 36 5 l3 37 55 0 c42 0
53 -3 48 -12 -5 -7 -37 -53 -72 -102 -36 -50 -65 -97 -66 -105 -1 -13 15 -16
97 -19 l97 -3 0 51 c0 38 -4 50 -15 50 -10 0 -15 -11 -15 -35 0 -21 -5 -35
-12 -36 -7 0 -34 -1 -60 -2 -55 -3 -57 -9 35 117 36 49 63 95 60 102 -8 20
-181 20 -189 0z"/>
<path d="M3550 2205 c0 -8 9 -15 20 -15 19 0 20 -7 20 -104 0 -90 -2 -104 -16
-102 -9 0 -19 -5 -21 -11 -3 -10 12 -13 56 -13 60 0 84 16 41 27 -18 5 -20 14
-20 104 0 92 1 99 20 99 11 0 20 7 20 15 0 12 -13 15 -60 15 -47 0 -60 -3 -60
-15z"/>
<path d="M3680 2209 c0 -6 9 -13 20 -16 18 -5 20 -14 20 -103 0 -78 -3 -99
-15 -104 -33 -12 -12 -26 41 -26 40 0 54 3 51 13 -2 6 -11 11 -20 11 -13 -1
-16 14 -19 96 -2 54 -1 96 1 94 3 -2 21 -44 40 -92 20 -48 40 -87 46 -87 5 0
24 41 41 90 l33 90 0 -97 c1 -68 -2 -97 -10 -95 -6 1 -14 -4 -16 -10 -4 -10
22 -13 107 -13 85 0 111 3 107 13 -2 6 -12 11 -21 11 -19 -2 -19 -5 -5 35 10
29 14 31 58 31 41 0 49 -3 59 -25 15 -33 15 -46 1 -43 -6 2 -14 -3 -16 -9 -4
-10 23 -13 111 -13 71 0 116 4 116 10 0 6 -9 10 -20 10 -19 0 -20 7 -20 97 0
111 -5 113 76 -29 39 -70 54 -88 72 -88 22 0 22 2 22 115 0 108 1 115 20 115
11 0 20 7 20 15 0 12 -13 15 -55 15 -42 0 -55 -3 -55 -15 0 -8 9 -15 20 -15
19 0 20 -7 20 -92 l0 -93 -18 30 c-10 17 -38 65 -62 108 l-44 77 -48 0 c-49 0
-66 -17 -28 -27 18 -5 20 -14 20 -103 0 -90 -2 -99 -20 -105 -41 -13 -54 3
-99 120 -37 97 -47 115 -65 115 -18 0 -28 -18 -66 -117 l-45 -118 -35 0 -35 0
-3 103 c-3 97 -2 102 18 102 11 0 20 7 20 15 0 11 -12 15 -48 15 l-48 0 -23
-70 c-12 -38 -26 -72 -30 -75 -5 -2 -21 29 -36 70 l-27 75 -54 0 c-32 0 -54
-4 -54 -11z m479 -76 c7 -21 15 -44 17 -50 4 -9 -6 -13 -34 -13 l-40 0 16 50
c9 28 19 50 22 50 4 0 12 -17 19 -37z"/>
</g>
</svg>
